<svg xmlns="http://www.w3.org/2000/svg" width="24" height="24" viewBox="0 0 24 24" fill="none" stroke="#2e7d32" stroke-width="2" stroke-linecap="round" stroke-linejoin="round">
  <path d="M7 19H4.815a1.83 1.83 0 0 1-1.57-.881 1.785 1.785 0 0 1-.004-1.784L7.196 9.5" />
  <path d="M11 19h8.203a1.83 1.83 0 0 0 1.556-.89 1.784 1.784 0 0 0 0-1.775l-1.226-2.12" />
  <path d="m14 16-3 3 3 3" />
  <path d="M8.293 13.596 4.875 9.5l3.326-4.05" />
  <path d="m10.045 13.586 6.913-4 3.747 6.482" />
  <path d="m17.825 6.5-3.293-3.293L11.239 6.5" />
</svg>

